<mxfile host="app.diagrams.net" modified="2022-11-05T10:44:56.282Z" agent="5.0 (Macintosh; Intel Mac OS X 10_13_6) AppleWebKit/537.36 (KHTML, like Gecko) Chrome/106.0.0.0 Safari/537.36 OPR/92.0.0.0" etag="VHmPoNyLYMJMF4IhEDsF" version="20.5.1" type="github">
  <diagram id="Uwr6MWFte_KuY3uxZOR9" name="Page-1">
    <mxGraphModel dx="901" dy="524" grid="0" gridSize="10" guides="1" tooltips="1" connect="1" arrows="1" fold="1" page="1" pageScale="1" pageWidth="827" pageHeight="1169" math="0" shadow="0">
      <root>
        <mxCell id="0" />
        <mxCell id="1" parent="0" />
        <mxCell id="U8ad8ijapWqhXHwYQagR-1" value="" style="whiteSpace=wrap;html=1;aspect=fixed;fontSize=15;" vertex="1" parent="1">
          <mxGeometry x="49.5" y="69.5" width="320" height="320" as="geometry" />
        </mxCell>
        <mxCell id="Mn8kxcCL8EvngQnYvcxb-1" value="UTENTE" style="rounded=0;whiteSpace=wrap;html=1;fontSize=15;" parent="1" vertex="1">
          <mxGeometry x="69.5" y="109.5" width="280" height="40" as="geometry" />
        </mxCell>
        <mxCell id="Mn8kxcCL8EvngQnYvcxb-2" value="SOFTWARE APPLICATIVO" style="rounded=0;whiteSpace=wrap;html=1;fontSize=15;" parent="1" vertex="1">
          <mxGeometry x="69.5" y="159.5" width="280" height="40" as="geometry" />
        </mxCell>
        <mxCell id="Mn8kxcCL8EvngQnYvcxb-3" value="SISTEMA OPERATIVO" style="rounded=0;whiteSpace=wrap;html=1;fontSize=15;" parent="1" vertex="1">
          <mxGeometry x="69.5" y="209.5" width="280" height="40" as="geometry" />
        </mxCell>
        <mxCell id="Mn8kxcCL8EvngQnYvcxb-4" value="HARDWARE" style="rounded=0;whiteSpace=wrap;html=1;fontSize=15;" parent="1" vertex="1">
          <mxGeometry x="69.5" y="269.5" width="280" height="40" as="geometry" />
        </mxCell>
        <mxCell id="Mn8kxcCL8EvngQnYvcxb-5" value="" style="endArrow=none;html=1;rounded=0;fontSize=15;" parent="1" edge="1">
          <mxGeometry width="50" height="50" relative="1" as="geometry">
            <mxPoint x="59.5" y="259.5" as="sourcePoint" />
            <mxPoint x="359.5" y="259.5" as="targetPoint" />
          </mxGeometry>
        </mxCell>
        <mxCell id="U8ad8ijapWqhXHwYQagR-8" value="" style="whiteSpace=wrap;html=1;aspect=fixed;fontSize=15;" vertex="1" parent="1">
          <mxGeometry x="457" y="69.5" width="320" height="320" as="geometry" />
        </mxCell>
        <mxCell id="U8ad8ijapWqhXHwYQagR-9" value="HARDWARE" style="rounded=0;whiteSpace=wrap;html=1;fontSize=15;" vertex="1" parent="1">
          <mxGeometry x="477" y="109.5" width="280" height="40" as="geometry" />
        </mxCell>
        <mxCell id="U8ad8ijapWqhXHwYQagR-10" value="SOFTWARE APPLICATIVO" style="rounded=0;whiteSpace=wrap;html=1;fontSize=15;" vertex="1" parent="1">
          <mxGeometry x="477" y="159.5" width="280" height="40" as="geometry" />
        </mxCell>
        <mxCell id="U8ad8ijapWqhXHwYQagR-11" value="SISTEMA OPERATIVO" style="rounded=0;whiteSpace=wrap;html=1;fontSize=15;" vertex="1" parent="1">
          <mxGeometry x="477" y="209.5" width="280" height="40" as="geometry" />
        </mxCell>
        <mxCell id="U8ad8ijapWqhXHwYQagR-12" value="UTENTE" style="rounded=0;whiteSpace=wrap;html=1;fontSize=15;" vertex="1" parent="1">
          <mxGeometry x="477" y="269.5" width="280" height="40" as="geometry" />
        </mxCell>
        <mxCell id="U8ad8ijapWqhXHwYQagR-13" value="" style="endArrow=none;html=1;rounded=0;fontSize=15;" edge="1" parent="1">
          <mxGeometry width="50" height="50" relative="1" as="geometry">
            <mxPoint x="467" y="259.5" as="sourcePoint" />
            <mxPoint x="767" y="259.5" as="targetPoint" />
          </mxGeometry>
        </mxCell>
        <mxCell id="U8ad8ijapWqhXHwYQagR-14" value="" style="whiteSpace=wrap;html=1;aspect=fixed;fontSize=15;" vertex="1" parent="1">
          <mxGeometry x="49.5" y="424" width="320" height="320" as="geometry" />
        </mxCell>
        <mxCell id="U8ad8ijapWqhXHwYQagR-15" value="UTENTE" style="rounded=0;whiteSpace=wrap;html=1;fontSize=15;" vertex="1" parent="1">
          <mxGeometry x="69.5" y="464" width="280" height="40" as="geometry" />
        </mxCell>
        <mxCell id="U8ad8ijapWqhXHwYQagR-16" value="SOFTWARE APPLICATIVO" style="rounded=0;whiteSpace=wrap;html=1;fontSize=15;" vertex="1" parent="1">
          <mxGeometry x="69.5" y="514" width="280" height="40" as="geometry" />
        </mxCell>
        <mxCell id="U8ad8ijapWqhXHwYQagR-17" value="SISTEMA DI ELABORAZIONE" style="rounded=0;whiteSpace=wrap;html=1;fontSize=15;" vertex="1" parent="1">
          <mxGeometry x="69.5" y="564" width="280" height="40" as="geometry" />
        </mxCell>
        <mxCell id="U8ad8ijapWqhXHwYQagR-18" value="HARDWARE" style="rounded=0;whiteSpace=wrap;html=1;fontSize=15;" vertex="1" parent="1">
          <mxGeometry x="69.5" y="624" width="280" height="40" as="geometry" />
        </mxCell>
        <mxCell id="U8ad8ijapWqhXHwYQagR-19" value="" style="endArrow=none;html=1;rounded=0;fontSize=15;" edge="1" parent="1">
          <mxGeometry width="50" height="50" relative="1" as="geometry">
            <mxPoint x="59.5" y="614" as="sourcePoint" />
            <mxPoint x="359.5" y="614" as="targetPoint" />
          </mxGeometry>
        </mxCell>
        <mxCell id="U8ad8ijapWqhXHwYQagR-20" value="" style="whiteSpace=wrap;html=1;aspect=fixed;fontSize=15;" vertex="1" parent="1">
          <mxGeometry x="457" y="421" width="320" height="320" as="geometry" />
        </mxCell>
        <mxCell id="U8ad8ijapWqhXHwYQagR-21" value="UTENTE" style="rounded=0;whiteSpace=wrap;html=1;fontSize=15;" vertex="1" parent="1">
          <mxGeometry x="477" y="461" width="280" height="40" as="geometry" />
        </mxCell>
        <mxCell id="U8ad8ijapWqhXHwYQagR-22" value="SISTEMA OPERATIVO" style="rounded=0;whiteSpace=wrap;html=1;fontSize=15;" vertex="1" parent="1">
          <mxGeometry x="477" y="511" width="280" height="40" as="geometry" />
        </mxCell>
        <mxCell id="U8ad8ijapWqhXHwYQagR-23" value="SOFTWARE APPLICATIVO" style="rounded=0;whiteSpace=wrap;html=1;fontSize=15;" vertex="1" parent="1">
          <mxGeometry x="477" y="561" width="280" height="40" as="geometry" />
        </mxCell>
        <mxCell id="U8ad8ijapWqhXHwYQagR-24" value="HARDWARE" style="rounded=0;whiteSpace=wrap;html=1;fontSize=15;" vertex="1" parent="1">
          <mxGeometry x="477" y="621" width="280" height="40" as="geometry" />
        </mxCell>
        <mxCell id="U8ad8ijapWqhXHwYQagR-25" value="" style="endArrow=none;html=1;rounded=0;fontSize=15;" edge="1" parent="1">
          <mxGeometry width="50" height="50" relative="1" as="geometry">
            <mxPoint x="467" y="611" as="sourcePoint" />
            <mxPoint x="767" y="611" as="targetPoint" />
          </mxGeometry>
        </mxCell>
      </root>
    </mxGraphModel>
  </diagram>
</mxfile>
